<?xml version="1.0" encoding="utf-8"?>
<svg viewBox="-1000 -1000 4000 2000" width="4000px" height="2000px" xmlns="http://www.w3.org/2000/svg">
  <g transform="matrix(1, 0, 0, 1, 0, 194)">
    <title>Flame</title>
    <path style="fill: rgb(186, 71, 0);" d="M -498.812 -74 L -500 -74 C -500 -236.698 -420.945 -388.139 -289.956 -481.346 C -199.072 -568.732 -100.733 -648.921 -62.439 -760.252 C -22.596 -876.087 -27.565 -1024 -27.565 -1024 C -27.565 -1024 -24.701 -1020.755 -19.51 -1014.766 C -2.743 -988.628 45.47 -912.11 74.705 -851.82 C 103.414 -792.614 109.922 -777.871 134.783 -677.273 C 160.225 -574.325 178.1 -376.118 178.1 -376.118 L 210.223 -717.718 C 290.042 -597.738 345.424 -517.126 386.372 -434.464 C 407.998 -390.807 428.965 -346.002 447.66 -298.435 C 478.163 -237.616 496.739 -168.858 499.609 -94.344 C 500.198 -85.953 500.348 -79.13 500.322 -74.013 L 484.928 -74.013 L 484.928 -74 L 250 -74 C 250 -163.316 202.35 -245.847 125 -290.505 C -41.667 -386.73 -249.999 -266.449 -250 -74 L -483.706 -74 L -483.709 -73.998 L -498.812 -73.998 C -498.812 -73.999 -498.812 -73.999 -498.812 -74 Z"/>
  </g>
  <g transform="matrix(1, 0, 0, 1, 0, 170)">
    <title>Cog</title>
    <path d="M 97.405 491.091 L 59.103 658.636 L 59.184 658.642 L -59.147 658.024 L -97.573 491 L -96.738 491 C -121.801 485.956 -146.38 479.007 -170.259 470.276 L -288.753 593.509 L -288.687 593.556 L -389.798 532.082 L -336.912 369.736 C -351.306 356.714 -364.974 342.841 -377.821 328.171 L -377.371 328.951 L -541.711 379.58 L -541.675 379.654 L -600.306 276.867 L -474.871 160.077 L -473.679 162.141 C -480.794 141.131 -486.565 119.385 -490.871 96.973 L -658.403 58.674 L -658.409 58.756 L -658.102 0 L -250 0 C -250 89.316 -202.35 171.847 -125 216.505 C 41.667 312.73 249.999 192.449 250 0 L 657.795 0 L 657.516 53.479 L 491.537 91.664 C 487.591 112.833 482.296 133.633 475.72 153.948 L 602.001 263.247 L 602.044 263.178 L 545.946 367.368 L 381.528 323.178 C 366.012 341.5 349.129 358.758 330.977 374.787 L 331.978 374.209 L 382.608 538.549 L 382.681 538.513 L 279.894 597.144 L 164.022 472.695 C 141.942 480.487 119.692 486.593 97.405 491.091 Z" style="fill: rgb(56, 48, 48);"/>
  </g>
  <title>Cog</title>
</svg>