<svg xmlns="http://www.w3.org/2000/svg" viewBox="-1000 -1000 2000 2000">
  <g transform="translate(0 194)">
    <path fill="#ba4700" d="M-498.812-74H-500c0-162.698 79.055-314.139 210.044-407.346 90.884-87.386 189.223-167.575 227.517-278.906C-22.596-876.087-27.565-1024-27.565-1024s2.864 3.245 8.055 9.234C-2.743-988.628 45.47-912.11 74.705-851.82c28.709 59.206 35.217 73.949 60.078 174.547C160.225-574.325 178.1-376.118 178.1-376.118l32.123-341.6c79.819 119.98 135.201 200.592 176.149 283.254 21.626 43.657 42.593 88.462 61.288 136.029 30.503 60.819 49.079 129.577 51.949 204.091.589 8.391.739 15.214.713 20.331h-15.394V-74H250c0-89.316-47.65-171.847-125-216.505C-41.667-386.73-249.999-266.449-250-74h-233.706l-.003.002h-15.103V-74z"/>
  </g>
  <g transform="translate(0 170)">
    <path fill="#383030" d="M97.405 491.091L59.103 658.636l.081.006-118.331-.618L-97.573 491h.835a503.301 503.301 0 0 1-73.521-20.724l-118.494 123.233.066.047-101.111-61.474 52.886-162.346a502.392 502.392 0 0 1-40.909-41.565l.45.78-164.34 50.629.036.074-58.631-102.787 125.435-116.79 1.192 2.064a493.164 493.164 0 0 1-17.192-65.168l-167.532-38.299-.006.082.307-58.756H-250c0 89.316 47.65 171.847 125 216.505C41.667 312.73 249.999 192.449 250 0h407.795l-.279 53.479-165.979 38.185a499.372 499.372 0 0 1-15.817 62.284l126.281 109.299.043-.069-56.098 104.19-164.418-44.19a499.448 499.448 0 0 1-50.551 51.609l1.001-.578 50.63 164.34.073-.036-102.787 58.631-115.872-124.449a493.443 493.443 0 0 1-66.617 18.396z"/>
  </g>
</svg>
